HIERARCHY
ROOT root
{
	OFFSET	0	13.1	24.9
	CHANNELS 6  Xposition Yposition Zposition Xrotation Yrotation Zrotation
	JOINT spine_1
	{
		OFFSET	0	9.99999	0
		CHANNELS 3  Xrotation Yrotation Zrotation
		JOINT spine_2
		{
			OFFSET	0	112	-10
			CHANNELS 3  Xrotation Yrotation Zrotation
			JOINT spine_3
			{
				OFFSET	0	206.5	19.3
				CHANNELS 3  Xrotation Yrotation Zrotation
				JOINT spine_4
				{
					OFFSET	0	110.4	14.6
					CHANNELS 3  Xrotation Yrotation Zrotation
					JOINT neck_1
					{
						OFFSET	0	71.8	-50.3
						CHANNELS 3  Xrotation Yrotation Zrotation
						JOINT neck_2
						{
							OFFSET	0	86.2	-25.8
							CHANNELS 3  Xrotation Yrotation Zrotation
							JOINT head_ee
							{
								OFFSET	0	179.8	-8.7
								CHANNELS 3  Xrotation Yrotation Zrotation
								End Site
								{
									OFFSET	1	0	0
								}
							}
						}
					}
					JOINT left_clavicle
					{
						OFFSET	-43.2	22.4	-70.8
						CHANNELS 3  Xrotation Yrotation Zrotation
						JOINT left_shoulder
						{
							OFFSET	-93.9	-5.79999	48.7
							CHANNELS 3  Xrotation Yrotation Zrotation
							JOINT left_elbow
							{
								OFFSET	-291.4	-30.8	15.2
								CHANNELS 3  Xrotation Yrotation Zrotation
								JOINT left_lowarm_twist
								{
									OFFSET	-110.7	-3.89999	13.6
									CHANNELS 3  Xrotation Yrotation Zrotation
									JOINT left_hand
									{
										OFFSET	-110.7	-3.89999	13.6
										CHANNELS 3  Xrotation Yrotation Zrotation
										JOINT left_ee
										{
											OFFSET	-80.8	-5.10001	12.1
											CHANNELS 3  Xrotation Yrotation Zrotation
											End Site
											{
												OFFSET	1	0	0
											}
										}
									}
								}
							}
						}
					}
					JOINT right_clavicle
					{
						OFFSET	43.2	22.4	-70.8
						CHANNELS 3  Xrotation Yrotation Zrotation
						JOINT right_shoulder
						{
							OFFSET	93.9	-5.79999	48.7
							CHANNELS 3  Xrotation Yrotation Zrotation
							JOINT right_elbow
							{
								OFFSET	291.4	-30.8	15.2
								CHANNELS 3  Xrotation Yrotation Zrotation
								JOINT right_lowarm_twist
								{
									OFFSET	110.7	-3.89999	13.6
									CHANNELS 3  Xrotation Yrotation Zrotation
									JOINT right_hand
									{
										OFFSET	110.7	-3.89999	13.6
										CHANNELS 3  Xrotation Yrotation Zrotation
										JOINT right_ee
										{
											OFFSET	80.8	-5.10001	12.1
											CHANNELS 3  Xrotation Yrotation Zrotation
											End Site
											{
												OFFSET	1	0	0
											}
										}
									}
								}
							}
						}
					}
				}
			}
		}
	}
	JOINT left_hip
	{
		OFFSET	-82.8	-127.5	0.300001
		CHANNELS 3  Xrotation Yrotation Zrotation
		JOINT left_knee
		{
			OFFSET	-28.2	-396.7	2.2
			CHANNELS 3  Xrotation Yrotation Zrotation
			JOINT left_ankle
			{
				OFFSET	-11.7	-411.3	35.4
				CHANNELS 3  Xrotation Yrotation Zrotation
				JOINT left_toes
				{
					OFFSET	0	-60	-88.6
					CHANNELS 3  Xrotation Yrotation Zrotation
					JOINT left_foot_ee
					{
						OFFSET	-22.5	-16.5	-42.2
						CHANNELS 3  Xrotation Yrotation Zrotation
						End Site
						{
							OFFSET	1	0	0
						}
					}
				}
			}
		}
	}
	JOINT right_hip
	{
		OFFSET	82.8	-127.5	0.300001
		CHANNELS 3  Xrotation Yrotation Zrotation
		JOINT right_knee
		{
			OFFSET	28.2	-396.7	2.2
			CHANNELS 3  Xrotation Yrotation Zrotation
			JOINT right_ankle
			{
				OFFSET	11.7	-411.3	35.4
				CHANNELS 3  Xrotation Yrotation Zrotation
				JOINT right_toes
				{
					OFFSET	0	-60	-88.6
					CHANNELS 3  Xrotation Yrotation Zrotation
					JOINT right_foot_ee
					{
						OFFSET	22.5	-16.5	-42.2
						CHANNELS 3  Xrotation Yrotation Zrotation
						End Site
						{
							OFFSET	1	0	0
						}
					}
				}
			}
		}
	}
}
MOTION
Frames: 6
Frame Time: 0.02
2686.5547157 697.81 -1692.34694722 8.40440318425 70.3050014243 -2.06618610916 2.32354 -0.593639 -3.34576 2.32968 -0.379661 -3.37671 2.35142 0.199525 -3.3921 2.33552 -0.338384 -3.38109 -13.2387 8.1613 11.4879 -12.9121 8.36537 13.3568 -0.0 0.0 -0.0 10.4066 14.6296 18.9999 -1.74184 -15.1738 65.1305 1.10705 -28.7396 0.283628 83.6165 -4.26165 -8.80035 -5.29157 27.1504 -18.8411 -0.0 0.0 -0.0 4.98968 -10.6447 -9.82562 -19.0349 4.94525 -59.1842 0.202065 5.71625 -0.0100882 38.4577 0.271481 4.8142 -3.43976 -28.7632 7.32703 0.0 0.0 0.0 -1.26917 -27.7069 0.311547 -16.1113 0.321673 2.44339 36.8601 27.0183 -4.92044 36.5852 -0.0 -0.0 -0.0 0.0 -0.0 2.10946 -10.3099 0.0544621 -43.2247 0.684561 -6.44371 3.37068 -6.83291 0.489193 9.50929 -0.0 -0.0 0.0 0.0 0.0 
2670.95466233 699.272 -1686.32759928 7.16193510574 68.9821717446 -1.82459984876 2.5394 -0.399229 -2.83872 2.54386 -0.21786 -2.85835 2.55394 0.260939 -2.85474 2.54262 -0.192999 -2.86013 -14.3107 8.97869 9.20977 -14.1716 11.5763 11.5582 -0.0 0.0 -0.0 10.4675 13.9319 19.2112 -1.73742 -15.3211 62.7042 1.34975 -33.766 0.409665 81.5972 -4.02392 -8.69722 -4.76856 26.3973 -16.3225 -0.0 0.0 -0.0 5.32738 -11.9628 -10.4024 -20.7643 5.72549 -58.4512 0.225318 6.36891 -0.0125358 35.5435 0.137984 4.46639 -4.19677 -28.8735 11.3965 0.0 0.0 0.0 -2.28928 -24.825 0.892779 -13.4735 0.316291 2.03875 35.2052 26.7603 -4.73688 37.4485 -0.0 -0.0 -0.0 0.0 -0.0 7.9919 -20.0234 -0.828612 -38.9393 0.400666 -5.84922 0.682814 -9.34989 0.0997738 8.12828 -0.0 -0.0 0.0 0.0 0.0 
2660.3430868 700.352 -1673.78505584 3.25442034537 70.2979312222 1.40022247172 2.85312 -0.35614 -2.6508 2.85701 -0.186803 -2.66807 2.86468 0.245445 -2.66332 2.85482 -0.178103 -2.66867 -16.0434 8.45618 8.4903 -15.9581 11.3296 10.9017 -0.0 0.0 -0.0 10.1422 13.1997 18.7296 -0.814767 -15.5311 61.396 1.61242 -38.6131 0.564902 80.277 -3.87052 -8.62531 -4.67298 27.5338 -14.9733 -0.0 0.0 -0.0 5.40447 -14.1747 -10.4994 -22.3788 7.04963 -57.864 0.254284 7.17961 -0.0159528 32.6081 0.0215929 4.10971 -4.68044 -28.8106 14.1236 0.0 0.0 0.0 -1.5727 -21.85 0.799226 -11.9246 0.304453 1.8014 34.8598 26.6036 -4.69479 36.1655 -0.0 -0.0 -0.0 0.0 -0.0 9.24079 -20.0706 -0.982844 -40.4951 0.498563 -6.06744 0.266376 -11.3213 0.0390076 9.42677 -0.0 -0.0 0.0 0.0 0.0 
2644.42316222 698.22 -1652.18586748 0.963877559874 74.3725682173 3.61772399284 3.17062 -0.609822 -2.54789 3.17412 -0.446513 -2.5815 3.19309 -0.0401269 -2.6195 3.1838 -0.453185 -2.58034 -15.8512 9.92565 8.13158 -15.8534 14.3276 11.0628 -0.0 0.0 -0.0 10.1884 12.9033 18.8523 -0.0894154 -16.0248 60.354 1.90173 -43.2868 0.754675 79.3046 -3.7586 -8.57008 -4.02232 28.2778 -10.8187 -0.0 0.0 -0.0 5.27979 -16.4702 -10.2468 -24.5189 7.59624 -57.2977 0.289462 8.16026 -0.020648 29.9175 -0.0688988 3.77801 -4.97153 -28.7828 15.7805 0.0 0.0 0.0 -1.88887 -16.0734 0.51803 -11.8263 0.303485 1.78634 36.8013 26.5091 -4.89736 36.248 -0.0 -0.0 -0.0 0.0 -0.0 10.0507 -24.9311 -0.769 -42.268 0.617323 -6.31282 0.607683 -14.4697 0.0893016 11.2542 -0.0 -0.0 0.0 0.0 0.0 
2644.87052969 698.22 -1641.56123856 1.03814044963 75.5158141205 3.54082511225 3.17062 -0.609822 -2.54789 3.17412 -0.446513 -2.5815 3.19309 -0.0401269 -2.6195 3.1838 -0.453185 -2.58034 -15.8512 9.92565 8.13158 -15.8534 14.3276 11.0628 -0.0 0.0 -0.0 10.1884 12.9033 18.8523 -0.0894154 -16.0248 60.354 1.90173 -43.2868 0.754675 79.3046 -3.7586 -8.57008 -4.02232 28.2778 -10.8187 -0.0 0.0 -0.0 5.27979 -16.4702 -10.2468 -24.5189 7.59624 -57.2977 0.289462 8.16026 -0.020648 29.9175 -0.0688988 3.77801 -4.97153 -28.7828 15.7805 0.0 0.0 0.0 -1.88887 -16.0734 0.51803 -11.8263 0.303485 1.78634 36.8013 26.5091 -4.89736 36.248 -0.0 -0.0 -0.0 0.0 -0.0 10.0507 -24.9311 -0.769 -42.268 0.617323 -6.31282 0.607683 -14.4697 0.0893016 11.2542 -0.0 -0.0 0.0 0.0 0.0 
2620.31628124 700.561 -1639.0483224 6.48275142186 75.8837838147 -2.16903527149 3.04134 -0.687546 -2.57061 3.04486 -0.522636 -2.60911 3.06766 -0.105294 -2.65882 3.05818 -0.52374 -2.60889 -18.4209 10.4563 8.7094 -18.4944 15.4882 12.1857 -0.0 0.0 -0.0 10.2866 12.4905 19.085 0.254771 -16.955 60.378 2.0575 -45.5402 0.863708 79.7943 -3.81485 -8.59813 -3.06843 28.6294 -5.39144 -0.0 0.0 -0.0 5.54595 -19.6322 -10.5603 -26.8041 8.30656 -54.7721 0.353632 9.93639 -0.0307411 28.0196 -0.123305 3.5417 -5.00203 -28.8108 15.9326 0.0 0.0 0.0 -6.12753 -13.1734 1.52619 -9.29387 0.269659 1.39927 35.3161 26.1996 -4.73116 34.5677 -0.0 -0.0 -0.0 0.0 -0.0 18.1613 -24.4884 2.2614 -44.6951 0.792156 -6.64267 -10.1326 -21.2237 -1.54777 12.6501 -0.0 -0.0 0.0 0.0 0.0 
